<?xml version="1.0" encoding="utf-8"?>
<!-- Generator: Adobe Illustrator 19.2.0, SVG Export Plug-In . SVG Version: 6.00 Build 0)  -->
<svg version="1.1" id="Layer_1_copy_8" xmlns="http://www.w3.org/2000/svg" xmlns:xlink="http://www.w3.org/1999/xlink" x="0px"
	 y="0px" viewBox="0 0 940 1329.4" style="enable-background:new 0 0 940 1329.4;" xml:space="preserve">
<g style="opacity: 0.15;">
	<path d="M881.1,19.8c-75.9,31-144.1,72.9-169.5,116.8c-4,6.8-5.5,15-5.5,24c0,16.9,5.5,36.7,11,56c5.5,19.3,11,38.1,11,53
		c0,4.6-0.5,8.7-1.7,12.4c-2.9,9.2-4.4,17.7-4.4,25.9c0,8.4,1.5,16.5,4.5,24.6c3.1,8.2,10.7,14,21.3,17.7
		c10.6,3.7,24.3,5.3,39.7,5.3c6.4,0,13.1-0.3,20.1-0.8c33-2.6,81-13.4,132.3-29.5v-0.9c-51.4,16.1-99.5,27-132.4,29.6
		c-6.9,0.5-13.6,0.8-20,0.8c-15.3,0-29-1.7-39.5-5.3c-10.5-3.6-17.8-9.3-20.8-17.2c-3-8-4.5-15.9-4.5-24.2c0-8.1,1.4-16.5,4.3-25.6
		c1.2-3.8,1.7-8.1,1.7-12.7c0-15-5.5-33.9-11-53.2c-5.5-19.3-11-39.1-11-55.8c0-8.9,1.5-16.9,5.4-23.5
		c25.2-43.5,93.3-85.4,169.1-116.4C900,13,918.9,6.1,937.8,0h-2.8C917,5.9,898.8,12.6,881.1,19.8z"/>
	<path d="M882.8,570.5c0,11.2,1.8,21.5,5.7,29.9c3.9,8.4,9.9,14.9,18.2,18.4c7.8,3.3,16.1,4.5,24.6,4.5c2.9,0,5.7-0.1,8.6-0.4v-0.4
		c-2.9,0.2-5.8,0.4-8.6,0.4c-8.5,0-16.8-1.2-24.5-4.4c-8.2-3.5-14.2-9.8-18-18.2c-3.9-8.3-5.7-18.6-5.7-29.7c0-12.4,2.2-26,6.4-39.3
		c8.2-26.4,26.3-61.4,50.4-98.7v-0.8c-24.3,37.5-42.6,72.7-50.8,99.3C885,544.4,882.8,558,882.8,570.5z"/>
	<path d="M809.7,0H809c-12.8,8.7-24.5,17.2-32.6,25.4v0C732.2,69.6,616.9,88,510.1,88c-73.7,0-143.5-8.7-183.3-23.6
		c-16.4-6.1-31.3-14.9-42-25.1C274,29.1,267.3,17.5,267.4,5.6c0-1.8,0.2-3.7,0.5-5.6h-0.4c-0.3,1.9-0.5,3.7-0.5,5.6
		c0,12.1,6.7,23.8,17.6,34.1c10.8,10.2,25.7,19,42.2,25.1c39.8,14.9,109.6,23.6,183.4,23.6c106.9,0,222.2-18.3,266.6-62.7l-0.1-0.1
		l0.1,0.1C784.8,17.4,796.8,8.9,809.7,0z"/>
	<path d="M586.4,179.9c-4.9,7.8-6.7,17.6-6.7,28.4c0,35.9,20.4,84.4,20.4,120.1c0,10.4-1.7,19.7-6.2,27.3
		c-12.8,21.8-35.5,47.2-35.5,72.4c0,2.3,0.2,4.6,0.6,6.8c2.3,13.5,14.4,23.7,31.6,30.6c17.2,6.9,39.5,10.4,62.6,10.4
		c3.4,0,6.8-0.1,10.3-0.2c63.3-2.9,169.7-30.9,269.1-70.3c-40.4,55.2-71.6,110.3-83.1,148.7c-3.9,13.1-6,26.7-6,39.3
		c0,25.4,8.4,47.2,27.4,54.5c7,2.7,14.4,3.8,22,3.8c15.5,0,32-4.4,47.3-8.5V643c-15.4,4-31.8,8.5-47.3,8.5c-7.6,0-15-1.1-21.9-3.8
		c-18.8-7.3-27.2-29-27.2-54.3c0-12.6,2.1-26.1,6-39.2c11.5-38.4,42.8-93.6,83.3-148.9c2.4-1,4.8-1.9,7.2-2.9V402
		c-2.3,0.9-4.6,1.9-6.9,2.8c2.3-3.1,4.6-6.2,6.9-9.3v-0.4c-2.5,3.3-4.9,6.6-7.3,9.9c-99.5,39.5-206,67.6-269.4,70.4
		c-3.4,0.2-6.9,0.2-10.3,0.2c-23,0-45.3-3.5-62.5-10.4c-17.1-6.9-29.1-17.1-31.4-30.4c-0.4-2.3-0.6-4.5-0.6-6.8
		c0-25.1,22.6-50.4,35.5-72.3c4.5-7.6,6.2-17,6.2-27.4c0-35.8-20.4-84.3-20.4-120.1c0-10.8,1.9-20.5,6.7-28.3
		C630.7,109,765.9,37.8,894.1,0h-0.9C765.2,37.9,630.5,108.9,586.4,179.9z"/>
	<path d="M922.2,547.6c0,9.7,1.5,18.6,4.9,25.8c2.9,6.3,7.2,11.4,12.9,14.8v-0.7c-5.5-3.3-9.6-8.3-12.4-14.3
		c-3.3-7.2-4.8-15.9-4.8-25.6c0-12.2,2.4-25.8,6.8-39.4c2.6-8,6.1-16.8,10.4-26.2v-1.4c-4.6,9.9-8.3,19.1-11,27.4
		C924.6,521.7,922.2,535.3,922.2,547.6z"/>
	<path d="M751.2,0h-5.5c-34.8,6.6-74.3,9.5-112.4,9.5c-42,0-82.2-3.5-112.2-9.5H516c30.5,6.6,72.9,10.6,117.4,10.6
		C673.4,10.6,715.1,7.4,751.2,0z"/>
	<path d="M792.6,245.1l0,0.2c2.4,17,9,26.8,17.8,35.9c1,2.8,2.6,5.1,4.9,7c3.4,2.9,8.1,4.8,13.9,6c5.7,1.2,12.5,1.7,20.1,1.7
		c9.2,0,19.6-0.7,30.6-1.9c16.4-1.7,37.1-5.6,60.2-11.4v-1.2c-23.1,5.8-43.9,9.7-60.3,11.4c-11,1.1-21.4,1.9-30.5,1.9
		c-10,0-18.6-0.9-25.1-3.1c-3.2-1.1-6-2.5-8.1-4.3c-2.1-1.8-3.7-4-4.6-6.6l0-0.1l-0.1-0.1c-8.7-9.1-15.2-18.4-17.5-35.2
		c1.3-3.2,1.9-6.8,1.9-10.8c0-13.3-6.2-30.6-12.3-48.6C777.1,168,771,149.4,771,134c0-6.9,1.2-13.2,4.2-18.6
		c10.7-19.3,31.1-38.1,57.2-55.3C862.7,40.1,900.7,22,940,7.3V6c-5.6,2.1-11.3,4.3-16.8,6.5c-33.4,13.5-65.2,29.3-91.4,46.6
		c-26.2,17.3-46.7,36.2-57.6,55.7c-3.1,5.6-4.3,12.1-4.3,19.1c0,15.7,6.2,34.3,12.3,52.3c6.2,17.9,12.3,35.3,12.3,48.2
		c0,3.9-0.6,7.5-1.8,10.5L792.6,245.1z"/>
	<path d="M641.4,373.1c0,3.5,0.4,7,1.3,10.5c2.7,11,12.6,18.9,26.6,24.2c14,5.2,32.2,7.8,51.8,7.8c4.7,0,9.5-0.1,14.4-0.4
		c49-3,126.9-22.3,204.5-50.4v-0.6c-77.7,28.1-155.6,47.5-204.6,50.5c-4.8,0.3-9.6,0.4-14.4,0.4c-19.5,0-37.7-2.5-51.6-7.7
		c-13.9-5.2-23.6-13.1-26.3-23.8c-0.9-3.5-1.2-6.9-1.2-10.4c0-18.1,10.4-36.5,18.6-54.1c2.8-5.9,3.9-12.8,3.9-20.4
		c0-16.6-5.3-36.5-10.5-56.7c-5.3-20.1-10.5-40.5-10.5-57.7c0-9.8,1.7-18.6,6-25.8C678.2,110.9,752.4,64,835.8,29
		c26.2-11,53.2-20.7,80-29h-1.9c-26.3,8.2-52.7,17.8-78.3,28.5c-83.4,35-157.8,81.9-186.6,129.7c-4.4,7.3-6.1,16.2-6.1,26.1
		c0,17.3,5.3,37.7,10.5,57.8c5.3,20.1,10.5,40.1,10.5,56.5c0,7.6-1.1,14.4-3.8,20.1C651.9,336.4,641.5,354.8,641.4,373.1z"/>
	<path d="M938.5,32.5c0.5-0.4,1-0.7,1.5-1v-2.2c-5.3,3.8-10.4,7.7-15,11.6c-11.6,9.9-20.6,20.3-25.7,30.8c-2,4.1-2.9,8.7-2.9,13.6
		c0,7.1,1.8,14.8,4.6,22.7c4.1,11.8,10.2,23.8,15.2,34.6c2.5,5.4,4.8,10.5,6.4,15c1.6,4.5,2.6,8.5,2.6,11.7c0,0.8-0.1,1.5-0.2,2.2
		l-0.1,0.5l0.4,0.3c3.9,3.7,9,6,14.5,7.5c0,0,0.1,0,0.1,0v-1.8c-5-1.4-9.6-3.5-13.1-6.6c0.1-0.7,0.1-1.3,0.1-2
		c0-4.7-1.9-10.5-4.6-17c-4.1-9.8-10.2-21.4-15.2-33.1c-5.1-11.7-9.1-23.6-9-33.8c0-4.6,0.8-8.9,2.7-12.8
		C907.6,58.8,921,45.2,938.5,32.5z"/>
	<path d="M858.8,208.4l0.1,0.3c4,7.5,10.4,12.1,17.1,15.3c6.5,3.1,13.3,4.7,18.3,6.2c1.5,2.8,3.8,4.7,6.9,5.9
		c3.2,1.2,7.2,1.7,11.9,1.7c7.3,0,16.3-1.2,26.8-2.6v-1.5c-10.6,1.5-19.6,2.6-26.8,2.6c-4.6,0-8.4-0.5-11.4-1.6
		c-3-1.1-5-2.8-6.3-5.4l-0.1-0.3l-0.3-0.1c-5.1-1.5-11.9-3.2-18.4-6.2c-6.4-3-12.4-7.4-16.3-14.4c0.6-1.9,0.8-3.9,0.8-6.1
		c0-5.7-1.7-12.5-4.2-20c-3.7-11.2-9.3-23.9-14-36.5c-4.7-12.7-8.4-25.3-8.3-36.2c0-5.7,1-11,3.4-15.6c8.7-16.5,25.7-32.4,47.7-46.9
		c15.9-10.6,34.5-20.5,54.3-29.5v-1.6C919.9,25,901.1,35,884.9,45.8c-22.1,14.6-39.3,30.6-48.1,47.5c-2.5,4.8-3.6,10.4-3.6,16.3
		c0,15,6.7,32.6,13.3,49.3c3.3,8.3,6.6,16.5,9.1,23.9c2.5,7.4,4.1,14.1,4.1,19.5c0,2.2-0.3,4.2-0.8,5.9L858.8,208.4z"/>
	<path d="M172.1,1072.9c18.5,15.2,26.9,49.7,35.2,84.4c8.4,34.7,16.6,69.5,34.8,85.1c20.8,17.8,52.2,35.7,60.3,63.2
		c1,3.3,1.4,6.6,1.4,9.9c0,4.7-0.9,9.3-2.7,13.9h0.3c1.7-4.6,2.6-9.2,2.6-13.9c0-3.3-0.5-6.6-1.4-10c-8.2-27.7-39.7-45.5-60.4-63.3
		c-18.1-15.5-26.4-50.3-34.8-85c-8.4-34.7-16.8-69.3-35.3-84.6C133.5,1040.8,69.5,1020.4,0,1011v0.3
		C69.5,1020.7,133.4,1041.1,172.1,1072.9z"/>
	<path d="M143.9,1151.1c7.1,31.6,13.6,63.3,28.4,78.3c16.4,16.6,34.7,33.2,39.7,54.9c0.5,2.3,0.8,4.5,0.8,6.7
		c0,11-6.2,21.5-16.4,30.7c-2.9,2.7-6.2,5.2-9.8,7.6h1c3.3-2.3,6.4-4.7,9.1-7.2c10.3-9.2,16.6-19.9,16.6-31.1c0-2.3-0.3-4.5-0.8-6.8
		c-5.1-22-23.5-38.6-39.9-55.2c-14.6-14.8-21.1-46.5-28.3-78.1c-7.1-31.6-14.8-63-31.9-77.5c-26.6-22.5-66.8-38.3-112.5-48.1v0.6
		c45.5,9.8,85.6,25.6,112.1,48C129,1088.2,136.7,1119.6,143.9,1151.1z"/>
	<path d="M33.5,1203l0-0.1l-0.1-0.1c-4.9-5.4-8.2-14.5-10.7-25.5c-3.8-16.5-5.9-37.2-9.7-56.1c-1.9-9.5-4.2-18.6-7.4-26.5
		c-1.6-4-3.4-7.7-5.5-11v2.3c2.9,5,5.3,10.9,7.3,17.3c5.3,17,7.8,37.9,10.8,56.5c1.5,9.3,3.2,18.1,5.4,25.7c2.2,7.5,5,13.7,8.8,18
		c1.7,6.3,2.4,11.8,2.4,16.8c0,8-1.8,14.7-3.9,21.3l0,0.1l0,0.1c0.1,0.8,0.2,1.6,0.2,2.4c0,3.5-1.2,6.6-3.4,9.5
		c-3.3,4.3-8.9,8-16.1,11.4c-3.5,1.6-7.4,3.2-11.6,4.7v1.3c7.3-2.6,13.7-5.3,18.9-8.4c4.1-2.5,7.5-5.1,9.8-8.2
		c2.3-3,3.6-6.4,3.6-10.2c0-0.8-0.1-1.6-0.2-2.4c2.1-6.6,3.9-13.4,3.9-21.5C36,1215.1,35.3,1209.5,33.5,1203z"/>
	<path d="M207.5,1235.7c-16.4-15.2-23.8-48.4-31.5-81.5c-7.7-33.1-15.8-66.2-33.6-81c-32.7-27.2-84.6-45.5-142.4-55.3v0.4
		c57.7,9.8,109.5,28.1,142.1,55.2c17.7,14.7,25.8,47.7,33.5,80.8c7.7,33.1,15.1,66.4,31.6,81.8c18.5,17.2,43.5,34.5,50,59.1
		c0.7,2.8,1.1,5.6,1.1,8.3c0,9-3.8,17.9-10.3,26.1h0.5c6.4-8.2,10.2-17,10.2-26.1c0-2.8-0.4-5.6-1.1-8.4
		C251,1270.1,226,1252.9,207.5,1235.7z"/>
	<path d="M63.8,1276.6c8.5-6.4,13.5-14,13.5-23.3c0-0.3,0-0.7,0-1c-0.5-13.6-1.6-25.8-8.9-42.9l0-0.1l-0.1-0.1
		c-5.6-5.8-9.4-15.5-12.4-27.1c-4.5-17.5-7.2-39.4-11.4-59.3c-4.3-20-10.2-38.1-21.5-48.1c-6.6-5.8-14.3-11.1-22.8-15.8v1.2
		c8.3,4.6,15.7,9.7,22.1,15.4c7.3,6.4,12.4,16.6,16.2,28.5c5.8,17.9,8.7,39.9,12.4,59.6c1.8,9.9,3.8,19.2,6.5,27.2
		c2.6,7.9,5.9,14.6,10.2,19.1c7.3,16.9,8.3,28.8,8.8,42.4c0,0.3,0,0.7,0,1c0,8.8-4.7,16.1-13.1,22.4c-8.4,6.3-20.4,11.5-34.8,16.1
		c-8,2.5-17.6,4.8-28.3,6.8v1.1c10.9-2,20.5-4.3,28.6-6.9C43.1,1288.3,55.2,1283,63.8,1276.6z"/>
	<path d="M100.8,1105.2c7,19.4,11.3,43.3,16.3,65.2c5,21.8,10.5,41.6,20.3,52.6c14.2,16.1,25.9,31.8,29.4,50.7
		c0.3,1.7,0.5,3.4,0.5,5c0,10.2-5.7,19.6-15.3,27.8c-9.6,8.2-23,15.2-38.2,20.5c-2.4,0.8-4.9,1.6-7.5,2.4h2.5
		c1.8-0.6,3.6-1.1,5.3-1.7c15.3-5.3,28.8-12.3,38.5-20.6c9.7-8.3,15.6-17.9,15.6-28.3c0-1.7-0.2-3.4-0.5-5.2
		c-3.5-19.1-15.3-35-29.6-51.1c-6.4-7.2-11-18.4-14.8-31.5c-5.8-19.6-9.7-43.7-15.3-65.4c-5.6-21.7-12.8-41.2-25.1-51.7
		c-20.4-17.4-49.3-30.6-82.6-39.8v0.8c33.1,9.2,61.9,22.3,82.1,39.6C90.2,1081.4,96.1,1092.3,100.8,1105.2z"/>
	<path d="M373.4,9.3c9.7,8.3,23.2,15.3,38.5,20.6c35,12.2,95.8,19.6,160.1,19.6c47.3,0,96.4-4,138.6-12.9
		c37.6-8,69.7-19.9,90.1-36.6h-1.2c-20.2,16.2-52,28-89.1,35.8c-42.2,8.9-91.3,12.9-138.5,12.9c-64.3,0-125-7.4-159.9-19.6
		c-15.2-5.3-28.6-12.3-38.2-20.5c-3.2-2.8-6-5.7-8.3-8.7h-0.9C367,3.2,369.9,6.3,373.4,9.3z"/>
	<path d="M602.7,30c44.2,0,90.2-3.7,129.7-12c21.5-4.6,41-10.5,57.3-18h-2.2c-15.9,7.1-34.7,12.7-55.3,17.1
		c-39.4,8.4-85.4,12-129.5,12c-59.4,0-115.6-6.7-148-17.5c-10-3.3-19.1-7.2-26.7-11.6h-1.8c7.9,4.8,17.5,8.9,28.1,12.5
		C487,23.4,543.2,30,602.7,30z"/>
	<path d="M329,24.5c10.3,9.2,24.5,17.1,40.3,22.9C406.7,60.9,472.1,69,541.2,69c50.4,0,102.7-4.3,147.6-13.8
		c44.9-9.5,82.5-24.4,103.3-45.5c3.1-3.2,6.8-6.4,10.9-9.7h-0.9c-3.9,3.1-7.4,6.2-10.4,9.3c-20.7,21-58.2,35.8-103.1,45.3
		c-44.9,9.5-97.2,13.8-147.5,13.8c-69.1,0-134.4-8.1-171.7-21.6c-15.8-5.7-29.9-13.6-40.1-22.8c-8.1-7.3-13.7-15.4-15.6-24h-0.6
		C315.1,8.8,320.8,17.1,329,24.5z"/>
	<path d="M221.5,17.8c0,25.9,28.5,51.3,62.6,64.4c42.2,16.3,116.7,25.7,195.4,25.7c113.1,0,234.8-19.5,281.7-66.3
		c13.2-13.1,35.7-27,57.3-41.6H818c-21.6,14.6-43.9,28.4-57.1,41.5c-46.8,46.7-168.4,66.2-281.5,66.2c-78.6,0-153.1-9.4-195.3-25.7
		c-34-13.1-62.4-38.4-62.4-64.2c0-3.3,0.5-6.6,1.4-9.9c0.8-2.7,1.8-5.3,3.1-7.9H226c-1.2,2.5-2.2,5.1-3,7.8
		C222,11.1,221.5,14.4,221.5,17.8z"/>
	<path d="M69.9,1104.3c6.7,18.4,10.6,41.1,15,61.8c4.4,20.7,9.1,39.5,17.5,50.3c12.1,15.7,17.1,30.4,19.1,46.6
		c0.1,1.1,0.2,2.1,0.2,3.2c0,9.4-5.2,17.7-14.2,25c-9,7.2-21.7,13.3-36.4,18.2c-17.7,5.9-42.5,10.6-71,13.6v0.9
		c28.6-3,53.4-7.7,71.2-13.7c14.8-5,27.6-11.1,36.7-18.4c9.1-7.3,14.6-15.9,14.6-25.7c0-1.1-0.1-2.2-0.2-3.3c-2-16.3-7-31.2-19.3-47
		c-5.4-7-9.4-17.7-12.7-30.1c-5-18.7-8.5-41.4-13.8-62.1c-5.2-20.6-12.1-39.1-23.9-49.4c-13.8-12-31.9-21.8-52.7-29.5v1
		c20.6,7.7,38.5,17.4,52.1,29.3C59.8,1081.7,65.4,1092.1,69.9,1104.3z"/>
</g>
</svg>
