<?xml version="1.0" encoding="utf-8"?>
<!-- Generator: Adobe Illustrator 19.2.0, SVG Export Plug-In . SVG Version: 6.00 Build 0)  -->
<svg version="1.1" id="Layer_1_copy_10" xmlns="http://www.w3.org/2000/svg" xmlns:xlink="http://www.w3.org/1999/xlink" x="0px"
	 y="0px" viewBox="0 0 940 1329.4" style="enable-background:new 0 0 940 1329.4;" xml:space="preserve">
<path style="opacity: 0.15;" d="M425.4,312.5c0.2,0.2,0.2,0.5,0,0.7l-22.1,22.1c-0.1,0.1-0.2,0.1-0.4,0.1s-0.3,0-0.4-0.1l-22.2-22.2c-0.2-0.2-0.2-0.5,0-0.7
	s0.5-0.2,0.7,0l21.8,21.8l21.8-21.8C424.9,312.3,425.2,312.3,425.4,312.5z M403.3,245.2c-0.2-0.2-0.5-0.2-0.7,0l-22.4,22.4
	c-0.2,0.2-0.2,0.5,0,0.7s0.5,0.2,0.7,0l22-22l22,22c0.1,0.1,0.2,0.1,0.4,0.1s0.3,0,0.4-0.1c0.2-0.2,0.2-0.5,0-0.7L403.3,245.2z
	 M514.9,397.6c-0.2-0.2-0.5-0.2-0.7,0L492,419.8c-0.2,0.2-0.2,0.5,0,0.7c0.1,0.1,0.2,0.1,0.4,0.1s0.3,0,0.4-0.1l22.1-22.1
	C515,398.2,515,397.8,514.9,397.6z M514.4,353.4c0.1,0.1,0.2,0.1,0.4,0.1s0.3,0,0.4-0.1c0.2-0.2,0.2-0.5,0-0.7l-22.4-22.4
	c-0.2-0.2-0.5-0.2-0.7,0l-22.4,22.4c-0.2,0.2-0.2,0.5,0,0.7s0.5,0.2,0.7,0l22-22L514.4,353.4z M604.5,352.7l-22.4-22.4
	c-0.2-0.2-0.5-0.2-0.7,0l-22.4,22.4c-0.2,0.2-0.2,0.5,0,0.7s0.5,0.2,0.7,0l22-22l22,22c0.1,0.1,0.2,0.1,0.4,0.1s0.3,0,0.4-0.1
	C604.7,353.2,604.7,352.9,604.5,352.7z M603.8,268.4c0.1,0.1,0.2,0.1,0.4,0.1s0.3,0,0.4-0.1c0.2-0.2,0.2-0.5,0-0.7l-22.4-22.4
	c-0.2-0.2-0.5-0.2-0.7,0s-0.2,0.5,0,0.7L603.8,268.4z M604.3,487.1c-0.2-0.2-0.5-0.2-0.7,0l-22.1,22.1c-0.2,0.2-0.2,0.5,0,0.7
	c0.1,0.1,0.2,0.1,0.4,0.1s0.3,0,0.4-0.1l22.1-22.1C604.5,487.6,604.5,487.3,604.3,487.1z M559.1,442.8c0.2,0.2,0.5,0.2,0.7,0l22-22
	l22,22c0.1,0.1,0.2,0.1,0.4,0.1s0.3,0,0.4-0.1c0.2-0.2,0.2-0.5,0-0.7l-22-22l21.8-21.8c0.2-0.2,0.2-0.5,0-0.7s-0.5-0.2-0.7,0
	l-21.8,21.8L560,397.6c-0.2-0.2-0.5-0.2-0.7,0s-0.2,0.5,0,0.7l21.8,21.8l-22,22C558.9,442.3,558.9,442.6,559.1,442.8z M558.9,531.9
	l-21.8,21.8l-21.8-21.8c-0.2-0.2-0.5-0.2-0.7,0s-0.2,0.5,0,0.7l22.2,22.2c0.1,0.1,0.2,0.1,0.4,0.1s0.3,0,0.4-0.1l22.1-22.1
	c0.2-0.2,0.2-0.5,0-0.7S559.1,531.7,558.9,531.9z M537.4,464.5c-0.2-0.2-0.5-0.2-0.7,0l-22.4,22.4c-0.2,0.2-0.2,0.5,0,0.7
	s0.5,0.2,0.7,0l22-22l22,22c0.1,0.1,0.2,0.1,0.4,0.1s0.3,0,0.4-0.1c0.2-0.2,0.2-0.5,0-0.7L537.4,464.5z M626.3,644.3
	c0.1,0,0.3,0,0.4-0.1l22.1-22.1c0.2-0.2,0.2-0.5,0-0.7s-0.5-0.2-0.7,0l-21.8,21.8l-21.8-21.8c-0.2-0.2-0.5-0.2-0.7,0s-0.2,0.5,0,0.7
	l22.2,22.2C626.1,644.2,626.2,644.3,626.3,644.3z M626.7,554c-0.2-0.2-0.5-0.2-0.7,0l-22.4,22.4c-0.2,0.2-0.2,0.5,0,0.7
	s0.5,0.2,0.7,0l22-22l22,22c0.1,0.1,0.2,0.1,0.4,0.1s0.3,0,0.4-0.1c0.2-0.2,0.2-0.5,0-0.7L626.7,554z M604.5,800.2
	c-0.2-0.2-0.5-0.2-0.7,0s-0.2,0.5,0,0.7L626,823c0.1,0.1,0.2,0.1,0.4,0.1s0.3,0,0.4-0.1c0.2-0.2,0.2-0.5,0-0.7L604.5,800.2z
	 M626.7,732.9c-0.2-0.2-0.5-0.2-0.7,0l-22.4,22.4c-0.2,0.2-0.2,0.5,0,0.7s0.5,0.2,0.7,0l22-22l22,22c0.1,0.1,0.2,0.1,0.4,0.1
	s0.3,0,0.4-0.1c0.2-0.2,0.2-0.5,0-0.7L626.7,732.9z M335.6,312.5l-22.1,22.1c-0.2,0.2-0.2,0.5,0,0.7c0.1,0.1,0.2,0.1,0.4,0.1
	s0.3,0,0.4-0.1l22.1-22.1c0.2-0.2,0.2-0.5,0-0.7S335.8,312.3,335.6,312.5z M314.1,245.2c-0.2-0.2-0.5-0.2-0.7,0l-22.4,22.4
	c-0.2,0.2-0.2,0.5,0,0.7s0.5,0.2,0.7,0l22-22l22,22c0.1,0.1,0.2,0.1,0.4,0.1s0.3,0,0.4-0.1c0.2-0.2,0.2-0.5,0-0.7L314.1,245.2z
	 M201,267.8l-21.8,21.8l-21.8-21.8c-0.2-0.2-0.5-0.2-0.7,0s-0.2,0.5,0,0.7l22.2,22.2c0.1,0.1,0.2,0.1,0.4,0.1s0.3,0,0.4-0.1
	l22.1-22.1c0.2-0.2,0.2-0.5,0-0.7S201.2,267.6,201,267.8z M157.2,223.5l22.4-22.4c0.2-0.2,0.2-0.5,0-0.7s-0.5-0.2-0.7,0l-22.4,22.4
	c-0.2,0.2-0.2,0.5,0,0.7c0.1,0.1,0.2,0.1,0.4,0.1S157.2,223.6,157.2,223.5z M313.8,156.8c0.1,0,0.3,0,0.4-0.1l22.1-22.1
	c0.2-0.2,0.2-0.5,0-0.7s-0.5-0.2-0.7,0l-21.8,21.8L292,133.8c-0.2-0.2-0.5-0.2-0.7,0s-0.2,0.5,0,0.7l22.2,22.2
	C313.5,156.8,313.7,156.8,313.8,156.8z M314.1,66.5c-0.2-0.2-0.5-0.2-0.7,0l-22.4,22.4c-0.2,0.2-0.2,0.5,0,0.7s0.5,0.2,0.7,0l22-22
	l22,22c0.1,0.1,0.2,0.1,0.4,0.1s0.3,0,0.4-0.1c0.2-0.2,0.2-0.5,0-0.7L314.1,66.5z M381,89.1c-0.2-0.2-0.5-0.2-0.7,0l-22.1,22.1
	c-0.2,0.2-0.2,0.5,0,0.7c0.1,0.1,0.2,0.1,0.4,0.1s0.3,0,0.4-0.1L381,89.8C381.2,89.6,381.2,89.3,381,89.1z M336.5,44.8l22-22l22,22
	c0.1,0.1,0.2,0.1,0.4,0.1s0.3,0,0.4-0.1c0.2-0.2,0.2-0.5,0-0.7l-22.4-22.4c-0.2-0.2-0.5-0.2-0.7,0l-22.4,22.4
	c-0.2,0.2-0.2,0.5,0,0.7S336.3,45,336.5,44.8z M426,44.8l22-22l22,22c0.1,0.1,0.2,0.1,0.4,0.1s0.3,0,0.4-0.1c0.2-0.2,0.2-0.5,0-0.7
	l-22.4-22.4c-0.2-0.2-0.5-0.2-0.7,0l-22.4,22.4c-0.2,0.2-0.2,0.5,0,0.7S425.8,45,426,44.8z M470.5,178.5c-0.2-0.2-0.5-0.2-0.7,0
	L448,200.3l-21.8-21.8c-0.2-0.2-0.5-0.2-0.7,0s-0.2,0.5,0,0.7l22.2,22.2c0.1,0.1,0.2,0.1,0.4,0.1s0.3,0,0.4-0.1l22.1-22.1
	C470.7,179.1,470.7,178.7,470.5,178.5z M426,134.3l22-22l22,22c0.1,0.1,0.2,0.1,0.4,0.1s0.3,0,0.4-0.1c0.2-0.2,0.2-0.5,0-0.7l-22-22
	l21.8-21.8c0.2-0.2,0.2-0.5,0-0.7s-0.5-0.2-0.7,0L448,110.9l-21.8-21.8c-0.2-0.2-0.5-0.2-0.7,0s-0.2,0.5,0,0.7l21.8,21.8l-22,22
	c-0.2,0.2-0.2,0.5,0,0.7S425.8,134.5,426,134.3z M559.9,178.5c-0.2-0.2-0.5-0.2-0.7,0l-22.1,22.1c-0.2,0.2-0.2,0.5,0,0.7
	c0.1,0.1,0.2,0.1,0.4,0.1s0.3,0,0.4-0.1l22.1-22.1C560.1,179.1,560.1,178.7,559.9,178.5z M515.4,134.3l22-22l22,22
	c0.1,0.1,0.2,0.1,0.4,0.1s0.3,0,0.4-0.1c0.2-0.2,0.2-0.5,0-0.7l-22.4-22.4c-0.2-0.2-0.5-0.2-0.7,0l-22.4,22.4
	c-0.2,0.2-0.2,0.5,0,0.7S515.2,134.5,515.4,134.3z M470.2,223.3c-0.2,0.2-0.2,0.5,0,0.7l22.2,22.2c0.1,0.1,0.2,0.1,0.4,0.1
	s0.3,0,0.4-0.1l22.1-22.1c0.2-0.2,0.2-0.5,0-0.7s-0.5-0.2-0.7,0l-21.8,21.8l-21.8-21.8C470.7,223.1,470.4,223.1,470.2,223.3z
	 M514.7,179c0.1,0.1,0.2,0.1,0.4,0.1s0.3,0,0.4-0.1c0.2-0.2,0.2-0.5,0-0.7L493.1,156c-0.2-0.2-0.5-0.2-0.7,0s-0.2,0.5,0,0.7
	L514.7,179z M715.4,554.7c0.1,0.1,0.2,0.1,0.4,0.1s0.3-0.1,0.4-0.1l22.1-22.1c0.2-0.2,0.2-0.5,0-0.7s-0.5-0.2-0.7,0l-21.8,21.8
	L694,531.8c-0.2-0.2-0.5-0.2-0.7,0s-0.2,0.5,0,0.7L715.4,554.7z M693.1,487.6c0.1,0.1,0.2,0.1,0.4,0.1s0.3,0,0.4-0.1l22-22l22,22
	c0.2,0.2,0.5,0.2,0.7,0s0.2-0.5,0-0.7l-22.4-22.4c-0.2-0.2-0.5-0.2-0.7,0l-22.4,22.4C692.9,487.1,692.9,487.4,693.1,487.6z
	 M738.3,710.7c-0.2-0.2-0.5-0.2-0.7,0l-21.8,21.8L694,710.7c-0.2-0.2-0.5-0.2-0.7,0s-0.2,0.5,0,0.7l22.2,22.2
	c0.1,0.1,0.2,0.1,0.4,0.1s0.3-0.1,0.4-0.1l22.1-22.1C738.5,711.2,738.5,710.9,738.3,710.7z M693.8,666.5l22-22l22,22
	c0.2,0.2,0.5,0.2,0.7,0s0.2-0.5,0-0.7l-22.4-22.4c-0.2-0.2-0.5-0.2-0.7,0l-22.4,22.4c-0.2,0.2-0.2,0.5,0,0.7
	c0.1,0.1,0.2,0.1,0.4,0.1S693.7,666.6,693.8,666.5z M907.1,621.3l-21.8,21.8l-21.8-21.8c-0.2-0.2-0.5-0.2-0.7,0s-0.2,0.5,0,0.7
	l22.2,22.2c0.1,0.1,0.2,0.1,0.4,0.1s0.3-0.1,0.4-0.1l22.1-22.1c0.2-0.2,0.2-0.5,0-0.7S907.3,621.1,907.1,621.3z M885.7,554
	c-0.2-0.2-0.5-0.2-0.7,0l-22.4,22.4c-0.2,0.2-0.2,0.5,0,0.7s0.5,0.2,0.7,0l22-22l22,22c0.1,0.1,0.2,0.1,0.4,0.1s0.3,0,0.4-0.1
	c0.2-0.2,0.2-0.5,0-0.7L885.7,554z M885.3,510.1c0.1,0,0.3-0.1,0.4-0.1l22.1-22.1c0.2-0.2,0.2-0.5,0-0.7s-0.5-0.2-0.7,0l-21.8,21.8
	l-21.8-21.8c-0.2-0.2-0.5-0.2-0.7,0s-0.2,0.5,0,0.7L885,510C885.1,510.1,885.2,510.1,885.3,510.1z M885.7,419.8
	c-0.2-0.2-0.5-0.2-0.7,0l-22.4,22.4c-0.2,0.2-0.2,0.5,0,0.7s0.5,0.2,0.7,0l22-22l22,22c0.1,0.1,0.2,0.1,0.4,0.1s0.3,0,0.4-0.1
	c0.2-0.2,0.2-0.5,0-0.7L885.7,419.8z M772.9,397.2c-0.2-0.2-0.5-0.2-0.7,0L750.4,419l-21.8-21.8c-0.2-0.2-0.5-0.2-0.7,0
	s-0.2,0.5,0,0.7l21.8,21.8l-22,22c-0.2,0.2-0.2,0.5,0,0.7s0.5,0.2,0.7,0l22-22l22,22c0.1,0.1,0.2,0.1,0.4,0.1s0.3,0,0.4-0.1
	c0.2-0.2,0.2-0.5,0-0.7l-22-22l21.8-21.8C773.1,397.8,773.1,397.4,772.9,397.2z M737.6,353c0.2,0.2,0.5,0.2,0.7,0l22-22l22,22
	c0.1,0.1,0.2,0.1,0.4,0.1s0.3,0,0.4-0.1c0.2-0.2,0.2-0.5,0-0.7l-22.4-22.4c-0.2-0.2-0.5-0.2-0.7,0l-22.4,22.4
	C737.4,352.5,737.4,352.8,737.6,353z M873,307.5c-0.2-0.2-0.5-0.2-0.7,0l-21.8,21.8l-21.8-21.8c-0.2-0.2-0.5-0.2-0.7,0
	s-0.2,0.5,0,0.7l22.2,22.2c0.1,0.1,0.2,0.1,0.4,0.1s0.3-0.1,0.4-0.1l22.1-22.1C873.2,308.1,873.2,307.7,873,307.5z M828.5,263.3
	l22-22l22,22c0.2,0.2,0.5,0.2,0.7,0s0.2-0.5,0-0.7l-22-22l21.8-21.8c0.2-0.2,0.2-0.5,0-0.7s-0.5-0.2-0.7,0l-21.8,21.8l-21.8-21.8
	c-0.2-0.2-0.5-0.2-0.7,0s-0.2,0.5,0,0.7l21.8,21.8l-22,22c-0.2,0.2-0.2,0.5,0,0.7c0.1,0.1,0.2,0.1,0.4,0.1S828.4,263.4,828.5,263.3z
	 M695.3,307.5c-0.2-0.2-0.5-0.2-0.7,0l-21.8,21.8L651,307.5c-0.2-0.2-0.5-0.2-0.7,0s-0.2,0.5,0,0.7l22.2,22.2
	c0.1,0.1,0.2,0.1,0.4,0.1s0.3,0,0.4-0.1l22.1-22.1C695.5,308.1,695.5,307.7,695.3,307.5z M695.6,45.1l22-22l22,22
	c0.1,0.1,0.2,0.1,0.4,0.1s0.3,0,0.4-0.1c0.2-0.2,0.2-0.5,0-0.7L717.9,22c-0.2-0.2-0.5-0.2-0.7,0l-22.4,22.4c-0.2,0.2-0.2,0.5,0,0.7
	S695.4,45.3,695.6,45.1z M649.6,89.3l-21.8,21.8L606,89.3c-0.2-0.2-0.5-0.2-0.7,0s-0.2,0.5,0,0.7l22.2,22.2c0.1,0.1,0.2,0.1,0.4,0.1
	s0.3,0,0.4-0.1L650.3,90c0.2-0.2,0.2-0.5,0-0.7S649.8,89.1,649.6,89.3z M605.8,45.1l22-22l22,22c0.1,0.1,0.2,0.1,0.4,0.1
	s0.3,0,0.4-0.1c0.2-0.2,0.2-0.5,0-0.7L628.1,22c-0.2-0.2-0.5-0.2-0.7,0l-22.4,22.4c-0.2,0.2-0.2,0.5,0,0.7S605.6,45.3,605.8,45.1z
	 M695.3,218.1c-0.2-0.2-0.5-0.2-0.7,0l-21.8,21.8L651,218.1c-0.2-0.2-0.5-0.2-0.7,0s-0.2,0.5,0,0.7l22.2,22.2l22.4,22.4
	c0.1,0.1,0.2,0.1,0.4,0.1s0.3,0,0.4-0.1c0.2-0.2,0.2-0.5,0-0.7l-22-22l21.8-21.8C695.5,218.6,695.5,218.3,695.3,218.1z M650.8,179.3
	l22-22l22,22c0.1,0.1,0.2,0.1,0.4,0.1s0.3,0,0.4-0.1c0.2-0.2,0.2-0.5,0-0.7l-22.4-22.4L651,134c-0.2-0.2-0.5-0.2-0.7,0
	s-0.2,0.5,0,0.7l21.8,21.8l-22,22c-0.2,0.2-0.2,0.5,0,0.7S650.6,179.4,650.8,179.3z M740.1,178.8c-0.2-0.2-0.5-0.2-0.7,0l-22.1,22.1
	c-0.2,0.2-0.2,0.5,0,0.7c0.1,0.1,0.2,0.1,0.4,0.1s0.3,0,0.4-0.1l22.1-22.1C740.3,179.3,740.3,179,740.1,178.8z M694.9,89.8
	C694.9,89.8,694.9,89.8,694.9,89.8c0.1,0.1,0.2,0.2,0.2,0.2l21.8,21.8l-22,22c-0.2,0.2-0.2,0.5,0,0.7s0.5,0.2,0.7,0l22-22l22,22
	c0.1,0.1,0.2,0.1,0.4,0.1s0.3,0,0.4-0.1c0.2-0.2,0.2-0.5,0-0.7l-22-22L740.1,90c0.2-0.2,0.2-0.5,0-0.7s-0.5-0.2-0.7,0l-21.8,21.8
	l-21.8-21.8c0,0-0.1,0-0.1-0.1c0-0.1-0.1-0.1-0.1-0.2l-22.4-22.4c-0.2-0.2-0.5-0.2-0.7,0s-0.2,0.5,0,0.7L694.9,89.8z M782.5,889.7
	l-21.8,21.8l-21.8-21.8c-0.2-0.2-0.5-0.2-0.7,0s-0.2,0.5,0,0.7l22.2,22.2c0.1,0.1,0.2,0.1,0.4,0.1s0.3,0,0.4-0.1l22.1-22.1
	c0.2-0.2,0.2-0.5,0-0.7S782.7,889.5,782.5,889.7z M761.1,822.3c-0.2-0.2-0.5-0.2-0.7,0L738,844.7c-0.2,0.2-0.2,0.5,0,0.7
	s0.5,0.2,0.7,0l22-22l22,22c0.1,0.1,0.2,0.1,0.4,0.1s0.3,0,0.4-0.1c0.2-0.2,0.2-0.5,0-0.7L761.1,822.3z M760.2,599.4
	c0.1,0.1,0.2,0.1,0.4,0.1s0.3,0,0.4-0.1l22.1-22.1c0.2-0.2,0.2-0.5,0-0.7s-0.5-0.2-0.7,0l-21.8,21.8l-21.8-21.8
	c-0.2-0.2-0.5-0.2-0.7,0s-0.2,0.5,0,0.7L760.2,599.4z M782.6,487.4c0.2-0.2,0.2-0.5,0-0.7c-0.2-0.2-0.5-0.2-0.7,0l-21.7,22.6
	c0,0,0,0.1,0,0.1c0,0,0,0.1-0.1,0.1c0,0,0,0.1,0,0.1c0,0,0,0.1,0,0.1c0,0,0,0.1,0,0.1c0,0,0,0.1,0,0.1c0,0,0,0.1,0.1,0.1
	c0,0,0,0,0,0.1l0,0c0,0,0,0,0,0s0,0,0,0l22.4,22.4c0.1,0.1,0.2,0.1,0.4,0.1s0.3,0,0.4-0.1c0.2-0.2,0.2-0.5,0-0.7l-22-22L782.6,487.4
	z M828.5,89.8l22-22l22,22c0.1,0.1,0.2,0.1,0.4,0.1s0.3,0,0.4-0.1c0.2-0.2,0.2-0.5,0-0.7l-22.4-22.4c-0.2-0.2-0.5-0.2-0.7,0
	l-22.4,22.4c-0.2,0.2-0.2,0.5,0,0.7S828.3,90,828.5,89.8z M873.3,45.1l22-22l22,22c0.1,0.1,0.2,0.1,0.4,0.1s0.3,0,0.4-0.1
	c0.2-0.2,0.2-0.5,0-0.7L895.6,22c-0.2-0.2-0.5-0.2-0.7,0l-22.4,22.4c-0.2,0.2-0.2,0.5,0,0.7S873.1,45.3,873.3,45.1z M828.5,179.3
	l22-22l22,22c0.1,0.1,0.2,0.1,0.4,0.1s0.3,0,0.4-0.1c0.2-0.2,0.2-0.5,0-0.7l-22.4-22.4L828.7,134c-0.2-0.2-0.5-0.2-0.7,0
	s-0.2,0.5,0,0.7l21.8,21.8l-22,22c-0.2,0.2-0.2,0.5,0,0.7S828.3,179.5,828.5,179.3z M917.1,178.8l-22.1,22.1c-0.2,0.2-0.2,0.5,0,0.7
	c0.1,0.1,0.2,0.1,0.4,0.1s0.3,0,0.4-0.1l22.1-22.1c0.2-0.2,0.2-0.5,0-0.7S917.2,178.6,917.1,178.8z M895.6,111.5
	c-0.2-0.2-0.5-0.2-0.7,0s-0.2,0.5,0,0.7l22.4,22.4c0.1,0.1,0.2,0.1,0.4,0.1s0.3,0,0.4-0.1c0.2-0.2,0.2-0.5,0-0.7L895.6,111.5z"/>
</svg>
