<?xml version="1.0" encoding="utf-8"?>
<!-- Generator: Adobe Illustrator 19.2.0, SVG Export Plug-In . SVG Version: 6.00 Build 0)  -->
<svg version="1.1" id="Layer_1_copy_4" xmlns="http://www.w3.org/2000/svg" xmlns:xlink="http://www.w3.org/1999/xlink" x="0px"
	 y="0px" viewBox="0 0 940 1329.4" style="enable-background:new 0 0 940 1329.4;" xml:space="preserve">
<g style="opacity: 0.15;">
	<path d="M371.2,365.5l21.3-12.3l0.2-0.1v-24.9l-21.6-12.5l-21.1,12.2l-21.1-12.2L307.8,328l-0.2,0.1V353l21.6,12.5l21.1-12.2
		L371.2,365.5z M350.6,328.7l20.6-11.9l20.6,11.9v23.7l-20.6,11.9l-20.6-11.9V328.7z M349.6,352.4l-20.6,11.9l-20.6-11.9v-23.7
		l20.6-11.9l20.6,11.9V352.4z"/>
	<path d="M42.1,1175.2l21.3-12.3l0.2-0.1v-24.9l-21.1-12.2V1102l20.8-12l0.2-0.1v-24.9l-21.6-12.5l-21.3,12.3l-0.2,0.1v24.3
		L0,1101.1l0,0v25.5l10.3,5.9l10.3,5.9v23.7L0,1174.1v1.2l21.1-12.2L42.1,1175.2z M62.7,1138.5v23.7l-20.6,11.9l-20.6-11.9v-23.7
		l20.6-11.9L62.7,1138.5z M21.6,1065.5l20.6-11.9l20.6,11.9v23.7l-20.6,11.9l-10.3-5.9l-10.3-5.9V1065.5z M10.8,1131.7l-10.3-5.9
		V1102l20.6-11.9l10.3,5.9l10.3,5.9v23.7l-20.6,11.9L10.8,1131.7z"/>
	<path d="M126.6,1053.5l0.2-0.1v-24.9l-21.6-12.5L84,1028.3l-0.2,0.1v24.9l21.6,12.5L126.6,1053.5z M84.8,1029l20.6-11.9l20.6,11.9
		v23.7l-20.6,11.9l-20.6-11.9V1029z"/>
	<path d="M147.5,1236.1l21.1,12.2l21.3-12.3l0.2-0.1v-24.9l-21.6-12.5l-21.1,12.2l-21.1-12.2l-21.3,12.3l-0.2,0.1v24.9l21.6,12.5
		L147.5,1236.1z M148,1211.4l20.6-11.9l20.6,11.9v23.7l-20.6,11.9l-20.6-11.9V1211.4z M105.8,1211.4l20.6-11.9l20.6,11.9v23.7
		l-20.6,11.9l-20.6-11.9V1211.4z"/>
	<path d="M84,663.4l-0.2,0.1v24.9l21.6,12.5l21.3-12.3l0.2-0.1v-24.9l-21.6-12.5L84,663.4z M125.9,687.9l-20.6,11.9l-20.6-11.9
		v-23.7l20.6-11.9l20.6,11.9V687.9z"/>
	<path d="M42.1,883.3L63.4,871l0.2-0.1v-24.3l20.8-12l0.2-0.1v-24.9L63.2,797l-21.1,12.2L21.1,797L0,809.2v25.5l20.6,11.9v24.3
		L42.1,883.3z M42.6,810.1l20.6-11.9l20.6,11.9v23.7l-20.6,11.9l-10.3-5.9l-10.3-5.9V810.1z M52.4,840.6l10.3,5.9v23.7l-20.6,11.9
		l-20.6-11.9v-23.7l20.6-11.9L52.4,840.6z M0.5,833.8v-23.7l20.6-11.9l20.6,11.9v23.7l-20.6,11.9L0.5,833.8z"/>
	<path d="M455,364.6v24.9l21.6,12.5l21.3-12.3l0.2-0.1v-24.9l-21.6-12.5l-21.3,12.3L455,364.6z M456,365.2l20.6-11.9l20.6,11.9v23.7
		l-20.6,11.9L456,388.9V365.2z"/>
	<path d="M929.7,467.8l-10.3-5.9v-23.7l20.6-11.9v-25.5l-10.3-5.9l-10.3-5.9v-23.7l20.6-11.9v-1.2l-21.1,12.2l-21.1-12.2l-21.3,12.3
		l-0.2,0.1v24.3l-20.8,12l-0.2,0.1V426l21.6,12.5l21.1-12.2l20.6,11.9v23.7l-20.8,12l-0.2,0.1V499l21.6,12.5l21.1-12.2v-25.5
		L929.7,467.8z M897.4,425.4l-20.6,11.9l-20.6-11.9v-23.7l20.6-11.9l10.3,5.9l10.3,5.9V425.4z M887.6,394.9l-10.3-5.9v-23.7
		l20.6-11.9l20.6,11.9v23.7l-20.6,11.9L887.6,394.9z M898.4,425.4v-23.7l20.6-11.9l10.3,5.9l10.3,5.9v23.7l-20.6,11.9L898.4,425.4z
		 M918.9,510.3l-20.6-11.9v-23.7l20.6-11.9l10.3,5.9l10.3,5.9v23.7L918.9,510.3z"/>
	<path d="M476.3,109l-0.2,0.1v24.9l21.6,12.5l21.3-12.3l0.2-0.1v-24.9l-21.6-12.5L476.3,109z M518.2,133.5l-20.6,11.9L477,133.5
		v-23.7l20.6-11.9l20.6,11.9V133.5z"/>
	<path d="M539.5,291.5l-0.2,0.1v24.3l-20.8,12l-0.2,0.1V353l21.6,12.5l21.1-12.2l21.1,12.2l21.3-12.3l0.2-0.1v-24.9l-21.1-12.2
		v-24.3l-21.6-12.5L539.5,291.5z M560.3,352.4l-20.6,11.9l-20.6-11.9v-23.7l20.6-11.9l10.3,5.9l10.3,5.9V352.4z M602.4,328.7v23.7
		l-20.6,11.9l-20.6-11.9v-23.7l20.6-11.9L602.4,328.7z M581.4,315.9l-20.6,11.9l-10.3-5.9l-10.3-5.9v-23.7l20.6-11.9l20.6,11.9
		V315.9z"/>
	<path d="M813.6,35.9l-21.1-12.2l-21.1,12.2l-21.1-12.2l-21.3,12.3l-0.2,0.1v24.3l-20.6,11.9l-21.1-12.2l-21.3,12.3l-0.2,0.1v24.9
		l21.1,12.2v23.7l-20.8,12l-0.2,0.1v24.9l21.6,12.5l21.3-12.3l0.2-0.1v-24.3l20.8-12l0.2-0.1v-24.3l20.6-11.9l21.1,12.2l21.1-12.2
		l20.6,11.9v23.7l-20.8,12l-0.2,0.1v24.9l21.1,12.2v23.7l-20.8,12l-0.2,0.1v24.9l21.6,12.5l21.3-12.3l0.2-0.1v-24.3l20.8-12l0.2-0.1
		v-24.9L835.2,170v-23.7l20.8-12l0.2-0.1v-24.3l20.8-12l0.2-0.1V73.3l20.6-11.9l20.6,11.9v24.3L940,110v-1.2L919.4,97V73.3L940,61.4
		V35.9L929.7,30L919.4,24V0.3l0.5-0.3h-2l0.5,0.3V24l-20.6,11.9L887.6,30L877.3,24V0.3l0.5-0.3h-2l0.5,0.3V24l-20.6,11.9L845.5,30
		L835.2,24V0.3l0.5-0.3h-1.5v24L813.6,35.9z M898.4,36.8l20.6-11.9l10.3,5.9l10.3,5.9v23.7l-20.6,11.9l-20.6-11.9V36.8z M666.6,97
		V73.3l20.6-11.9l20.6,11.9V97l-20.6,11.9L666.6,97z M707.8,170l-20.6,11.9L666.6,170v-23.7l20.6-11.9l10.3,5.9l10.3,5.9V170z
		 M728.8,133.5l-20.6,11.9l-10.3-5.9l-10.3-5.9v-23.7l20.6-11.9l10.3,5.9l10.3,5.9V133.5z M749.9,97l-20.6,11.9l-10.3-5.9L708.8,97
		V73.3l20.6-11.9l10.3,5.9l10.3,5.9V97z M740.1,66.5l-10.3-5.9V36.8l20.6-11.9L771,36.8v23.7l-20.6,11.9L740.1,66.5z M792,97
		l-20.6,11.9L750.9,97V73.3l20.6-11.9l10.3,5.9l10.3,5.9V97z M782.3,66.5L772,60.5V36.8l20.6-11.9l20.6,11.9v23.7l-20.6,11.9
		L782.3,66.5z M793,97V73.3l20.6-11.9l10.3,5.9l10.3,5.9V97l-20.6,11.9L793,97z M793,170v-23.7l20.6-11.9l10.3,5.9l10.3,5.9V170
		l-20.6,11.9L793,170z M834.2,243l-20.6,11.9L793,243v-23.7l20.6-11.9l10.3,5.9l10.3,5.9V243z M855.2,182.7v23.7l-20.6,11.9
		l-10.3-5.9l-10.3-5.9v-23.7l20.6-11.9L855.2,182.7z M855.2,133.5l-20.6,11.9l-10.3-5.9l-10.3-5.9v-23.7l20.6-11.9l10.3,5.9
		l10.3,5.9V133.5z M856.2,36.8l20.6-11.9l10.3,5.9l10.3,5.9v23.7l-20.6,11.9l-10.3-5.9l-10.3-5.9V36.8z M866,67.3l10.3,5.9V97
		l-20.6,11.9l-10.3-5.9L835.2,97V73.3l20.6-11.9L866,67.3z M845,30.8l10.3,5.9v23.7l-20.6,11.9l-10.3-5.9l-10.3-5.9V36.8l20.6-11.9
		L845,30.8z"/>
	<path d="M476.3,473.9l-0.2,0.1V499l21.6,12.5l21.3-12.3l0.2-0.1v-24.9l-21.6-12.5L476.3,473.9z M518.2,498.4l-20.6,11.9L477,498.4
		v-23.7l20.6-11.9l20.6,11.9V498.4z"/>
	<path d="M21.1,602.3l21.3-12.3l0.2-0.1v-24.9l-21.6-12.5L0,564.6v25.5L21.1,602.3z M21.1,553.6l20.6,11.9v23.7l-20.6,11.9
		L0.5,589.2v-23.7L21.1,553.6z"/>
	<path d="M560.3,36.8v23.7l-20.8,12l-0.2,0.1v24.9l21.6,12.5l21.3-12.3l0.2-0.1V73.3l20.6-11.9L624,73.6l21.3-12.3l0.2-0.1V36.8
		l20.6-11.9l21.1,12.2l21.3-12.3l0.2-0.1V0h-1.5l0.5,0.3V24l-20.6,11.9L666.6,24V0.3l0.5-0.3h-2l0.5,0.3V24l-20.6,11.9L634.8,30
		L624.5,24V0.3L625,0h-2l0.5,0.3V24l-20.6,11.9L592.7,30L582.4,24V0.3l0.5-0.3h-2l0.5,0.3V24l-20.6,11.9L540.2,24V0.3l0.5-0.3h-1.5
		v24.6L560.3,36.8z M603.4,36.8L624,24.9l10.3,5.9l10.3,5.9v23.7L624,72.4l-20.6-11.9V36.8z M561.3,36.8l20.6-11.9l10.3,5.9
		l10.3,5.9v23.7l-20.6,11.9l-10.3-5.9l-10.3-5.9V36.8z M571.1,67.3l10.3,5.9V97l-20.6,11.9L540.2,97V73.3l20.6-11.9L571.1,67.3z"/>
	<path d="M581.6,145.5l-0.2,0.1v24.9l21.6,12.5l21.3-12.3l0.2-0.1v-24.9l-21.6-12.5L581.6,145.5z M623.5,170l-20.6,11.9L582.4,170
		v-23.7l20.6-11.9l20.6,11.9V170z"/>
	<path d="M645.1,206.2l-21.3,12.3l-0.2,0.1v24.9l21.1,12.2v23.7l-20.8,12l-0.2,0.1v24.9l21.6,12.5l21.3-12.3l0.2-0.1v-24.3l20.8-12
		l0.2-0.1v-24.9L666.6,243v-24.3L645.1,206.2z M624.5,243v-23.7l20.6-11.9l20.6,11.9V243l-20.6,11.9L624.5,243z M665.6,315.9
		l-20.6,11.9l-20.6-11.9v-23.7l20.6-11.9l10.3,5.9l10.3,5.9V315.9z M686.7,255.7v23.7l-20.6,11.9l-10.3-5.9l-10.3-5.9v-23.7
		l20.6-11.9L686.7,255.7z"/>
	<polygon points="392.3,37.1 413.3,24.9 434.4,37.1 455.7,24.8 456,24.6 456,0 454.5,0 455,0.3 455,24 434.4,35.9 413.8,24
		413.8,0.3 414.3,0 412.3,0 412.8,0.3 412.8,24 392.3,35.9 371.7,24 371.7,0.3 372.2,0 370.7,0 370.7,24.6 	"/>
	<polygon points="20.6,992.5 20.6,1016.3 0,1028.1 0,1029.3 21.3,1017 21.6,1016.8 21.6,991.9 0,979.5 0,980.6 	"/>
	<path d="M876.3,243.5l21.6,12.5l21.1-12.2L940,256v-1.2L919.4,243v-23.7l20.6-11.9v-1.2l-21.1,12.2l-21.1-12.2l-21.3,12.3l-0.2,0.1
		V243.5z M877.3,219.2l20.6-11.9l20.6,11.9V243l-20.6,11.9L877.3,243V219.2z"/>
	<path d="M623.8,437.4l-0.2,0.1v24.9l21.6,12.5l21.3-12.3l0.2-0.1v-24.9l-21.6-12.5L623.8,437.4z M665.6,461.9l-20.6,11.9
		l-20.6-11.9v-23.7l20.6-11.9l20.6,11.9V461.9z"/>
	<path d="M813.1,474.1V499l21.6,12.5l21.3-12.3l0.2-0.1v-24.9l-21.6-12.5l-21.3,12.3L813.1,474.1z M814.1,474.6l20.6-11.9l20.6,11.9
		v23.7l-20.6,11.9l-20.6-11.9V474.6z"/>
	<path d="M897.9,133.2l-21.3,12.3l-0.2,0.1v24.9l21.6,12.5l21.1-12.2L940,183v-1.2L919.4,170v-23.7l20.6-11.9v-1.2l-21.1,12.2
		L897.9,133.2z M918.4,170l-20.6,11.9L877.3,170v-23.7l20.6-11.9l20.6,11.9V170z"/>
	<path d="M834.4,291.5l-0.2,0.1v24.9l21.6,12.5l21.3-12.3l0.2-0.1v-24.9l-21.6-12.5L834.4,291.5z M876.3,315.9l-20.6,11.9
		l-20.6-11.9v-23.7l20.6-11.9l20.6,11.9V315.9z"/>
	<path d="M707.8,316.5l21.6,12.5l21.3-12.3l0.2-0.1v-24.9l-21.6-12.5L708,291.5l-0.2,0.1V316.5z M708.8,292.2l20.6-11.9l20.6,11.9
		v23.7l-20.6,11.9l-20.6-11.9V292.2z"/>
	<path d="M665.9,364.4l-0.2,0.1v24.9l21.6,12.5l21.3-12.3l0.2-0.1v-24.9l-21.6-12.5L665.9,364.4z M707.8,388.9l-20.6,11.9
		l-20.6-11.9v-23.7l20.6-11.9l20.6,11.9V388.9z"/>
	<path d="M708,218.5l-0.2,0.1v24.9l21.6,12.5l21.3-12.3l0.2-0.1v-24.9l-21.6-12.5L708,218.5z M749.9,243l-20.6,11.9L708.8,243v-23.7
		l20.6-11.9l20.6,11.9V243z"/>
	<path d="M771.2,328l-0.2,0.1v24.3l-20.8,12l-0.2,0.1v24.3l-20.8,12l-0.2,0.1V426l21.6,12.5l21.3-12.3l0.2-0.1v-24.3l20.8-12
		l0.2-0.1v-24.3l20.8-12l0.2-0.1v-24.9l-21.6-12.5L771.2,328z M771,425.4l-20.6,11.9l-20.6-11.9v-23.7l20.6-11.9l10.3,5.9l10.3,5.9
		V425.4z M792,388.9l-20.6,11.9l-10.3-5.9l-10.3-5.9v-23.7l20.6-11.9l10.3,5.9l10.3,5.9V388.9z M813.1,352.4l-20.6,11.9l-10.3-5.9
		l-10.3-5.9v-23.7l20.6-11.9l20.6,11.9V352.4z"/>
</g>
</svg>
